<svg width="176" height="176" viewBox="0 0 176 176" fill="none" xmlns="http://www.w3.org/2000/svg">
<path d="M91.5102 38.0624C87.846 37.988 84.3023 39.3718 81.6583 41.9097C79.0143 44.4476 77.4865 47.9316 77.4108 51.5958L76.1764 111.459C76.1164 112.775 76.3203 114.089 76.7761 115.325C77.2318 116.56 77.9303 117.692 78.8303 118.654C79.7303 119.615 80.8136 120.387 82.0164 120.923C83.2193 121.46 84.5173 121.75 85.834 121.777C87.1507 121.804 88.4595 121.567 89.6832 121.08C90.9069 120.593 92.0209 119.867 92.9594 118.943C93.898 118.019 94.6421 116.916 95.1481 115.701C95.654 114.485 95.9114 113.18 95.9052 111.863L96.7787 69.5977L92.83 69.5142L91.9643 111.784C91.9302 113.352 91.2756 114.844 90.144 115.931C89.0124 117.018 87.496 117.612 85.9271 117.583C84.3567 117.549 82.8642 116.892 81.7772 115.758C80.6902 114.624 80.0976 113.106 80.1293 111.535L81.3573 51.676L81.3638 51.6715L81.3528 51.6695C81.4124 49.0529 82.5065 46.5665 84.3954 44.7548C86.2843 42.9432 88.8141 41.9538 91.4309 42.0034C94.0475 42.063 96.5339 43.157 98.3456 45.0459C100.157 46.9349 101.147 49.4647 101.097 52.0815L101.093 52.075L99.7444 117.693C99.6653 121.356 98.1373 124.838 95.4952 127.376C92.8531 129.914 89.3126 131.301 85.6496 131.233C81.9858 131.152 78.5037 129.621 75.9666 126.976C73.4296 124.332 72.0445 120.789 72.115 117.125L73.0967 69.4393L69.1503 69.359L68.1686 117.045C68.1204 119.377 68.5322 121.696 69.3806 123.869C70.2291 126.042 71.4974 128.026 73.1132 129.709C74.729 131.392 76.6605 132.739 78.7974 133.675C80.9343 134.611 83.2346 135.116 85.5669 135.162C87.899 135.212 90.218 134.802 92.3915 133.955C94.5649 133.108 96.5501 131.841 98.2335 130.226C99.9169 128.612 101.266 126.681 102.202 124.545C103.139 122.409 103.646 120.109 103.693 117.777L105.041 52.1585C105.114 48.4949 103.728 44.9526 101.19 42.3101C98.6511 39.6677 95.1672 38.1414 91.5036 38.0669L91.5102 38.0624Z" fill="#FFB015"/>
</svg>
