<svg width="56" height="56" viewBox="0 0 56 56" fill="none" xmlns="http://www.w3.org/2000/svg">
<path d="M23.8962 31.9375C23.2811 31.9375 22.7036 31.6899 22.2688 31.2419L17.9375 26.7487L20.1058 24.514L23.8971 28.4489L33.2692 18.8125L35.4375 21.0473L25.5238 31.2419C25.0889 31.6899 24.5114 31.9375 23.8962 31.9375Z" fill="url(#paint0_linear_126_992)"/>
<path d="M44.625 13.9335V11.5544C44.625 9.04313 42.5819 7 40.0706 7H11.5544C9.04313 7 7 9.04313 7 11.5544V39.9805C7 42.5416 9.08337 44.625 11.6445 44.625H13.9335C13.9335 47.0374 15.8961 49 18.3085 49H44.625C47.0374 49 49 47.0374 49 44.625V18.3085C49 15.8961 47.0374 13.9335 44.625 13.9335ZM11.6445 42.875C10.0476 42.875 8.75 41.5774 8.75 39.9805V11.5544C8.75 10.0082 10.0082 8.75 11.5544 8.75H40.0706C41.6176 8.75 42.875 10.0082 42.875 11.5544V39.9805C42.875 41.5774 41.5774 42.875 39.9805 42.875H11.6445ZM47.25 44.625C47.25 46.0723 46.0723 47.25 44.625 47.25H18.3085C16.8612 47.25 15.6835 46.0723 15.6835 44.625H39.9814C42.5416 44.625 44.625 42.5416 44.625 39.9805V15.6835C46.0723 15.6835 47.25 16.8612 47.25 18.3085V44.625Z" fill="url(#paint1_linear_126_992)"/>
<path d="M14 15.75V21H15.75V15.75H21V14H15.75C14.7849 14 14 14.7849 14 15.75Z" fill="url(#paint2_linear_126_992)"/>
<path d="M35.875 35.875H30.625V37.625H35.875C36.8401 37.625 37.625 36.8401 37.625 35.875V30.625H35.875V35.875Z" fill="url(#paint3_linear_126_992)"/>
<path d="M41.125 38.3871V13.2379C41.125 11.7276 39.8974 10.5 38.3871 10.5H13.2379C11.7276 10.5 10.5 11.7276 10.5 13.2379V38.3871C10.5 39.8974 11.7276 41.125 13.2379 41.125H38.3871C39.8974 41.125 41.125 39.8974 41.125 38.3871ZM39.375 38.3871C39.375 38.9314 38.9314 39.375 38.3871 39.375H13.2379C12.6936 39.375 12.25 38.9314 12.25 38.3871V13.2379C12.25 12.6936 12.6936 12.25 13.2379 12.25H38.3871C38.9314 12.25 39.375 12.6936 39.375 13.2379V38.3871Z" fill="url(#paint4_linear_126_992)"/>
<defs>
<linearGradient id="paint0_linear_126_992" x1="26.0144" y1="21.3365" x2="26.0144" y2="34.2596" gradientUnits="userSpaceOnUse">
<stop stop-color="#F96900"/>
<stop offset="1" stop-color="#FFA800"/>
</linearGradient>
<linearGradient id="paint1_linear_126_992" x1="26.3846" y1="15.0767" x2="26.3846" y2="56.4309" gradientUnits="userSpaceOnUse">
<stop stop-color="#F96900"/>
<stop offset="1" stop-color="#FFA800"/>
</linearGradient>
<linearGradient id="paint2_linear_126_992" x1="17.2308" y1="15.3461" x2="17.2308" y2="22.2385" gradientUnits="userSpaceOnUse">
<stop stop-color="#F96900"/>
<stop offset="1" stop-color="#FFA800"/>
</linearGradient>
<linearGradient id="paint3_linear_126_992" x1="33.8558" y1="31.9711" x2="33.8558" y2="38.8635" gradientUnits="userSpaceOnUse">
<stop stop-color="#F96900"/>
<stop offset="1" stop-color="#FFA800"/>
</linearGradient>
<linearGradient id="paint4_linear_126_992" x1="24.6346" y1="16.3892" x2="24.6346" y2="46.5433" gradientUnits="userSpaceOnUse">
<stop stop-color="#F96900"/>
<stop offset="1" stop-color="#FFA800"/>
</linearGradient>
</defs>
</svg>
