<svg width="56" height="56" viewBox="0 0 56 56" fill="none" xmlns="http://www.w3.org/2000/svg">
<path d="M40.25 45.5H45.5C46.4669 45.5 47.25 44.7169 47.25 43.75V38.5L40.25 45.5Z" fill="url(#paint0_linear_126_1000)"/>
<path d="M46.375 16.625H40.25V15.75C40.25 14.7849 39.4651 14 38.5 14V11.375C38.5 8.96263 36.5374 7 34.125 7H21.875C19.4626 7 17.5 8.96263 17.5 11.375V14C16.5349 14 15.75 14.7849 15.75 15.75V16.625H9.625C7.21263 16.625 5.25 18.5876 5.25 21V44.625C5.25 47.0374 7.21263 49 9.625 49H46.375C48.7874 49 50.75 47.0374 50.75 44.625V21C50.75 18.5876 48.7874 16.625 46.375 16.625ZM33.25 16.625V15.75H38.5V16.625H33.25ZM22.75 14V12.25H33.25V14C32.2849 14 31.5 14.7849 31.5 15.75V16.625H24.5V15.75C24.5 14.7849 23.7151 14 22.75 14ZM19.25 11.375C19.25 9.92775 20.4277 8.75 21.875 8.75H34.125C35.5723 8.75 36.75 9.92775 36.75 11.375V14H35V12.25C35 11.2849 34.2151 10.5 33.25 10.5H22.75C21.7849 10.5 21 11.2849 21 12.25V14H19.25V11.375ZM17.5 15.75H22.75V16.625H17.5V15.75ZM9.625 18.375H46.375C47.8223 18.375 49 19.5527 49 21V21.6685L44.8088 30.0501C44.3616 30.9444 43.463 31.5 42.4629 31.5H36.75V28.875C36.75 27.9099 35.9651 27.125 35 27.125H33.25C32.2849 27.125 31.5 27.9099 31.5 28.875V31.5H24.5V28.875C24.5 27.9099 23.7151 27.125 22.75 27.125H21C20.0349 27.125 19.25 27.9099 19.25 28.875V31.5H13.5371C12.537 31.5 11.6384 30.9444 11.1912 30.0501L7 21.6685V21C7 19.5527 8.17775 18.375 9.625 18.375ZM35 28.875V35C35 35.483 34.608 35.875 34.125 35.875C33.642 35.875 33.25 35.483 33.25 35V28.875H35ZM22.75 28.875V35C22.75 35.483 22.358 35.875 21.875 35.875C21.392 35.875 21 35.483 21 35V28.875H22.75ZM46.375 47.25H9.625C8.17775 47.25 7 46.0723 7 44.625V25.5815L9.62588 30.8324C10.3714 32.3234 11.8694 33.25 13.5371 33.25H19.25V35C19.25 36.4473 20.4277 37.625 21.875 37.625C23.3223 37.625 24.5 36.4473 24.5 35V33.25H31.5V35C31.5 36.4473 32.6777 37.625 34.125 37.625C35.5723 37.625 36.75 36.4473 36.75 35V33.25H42.4629C44.1297 33.25 45.6286 32.3234 46.3741 30.8324L49 25.5815V44.625C49 46.0723 47.8223 47.25 46.375 47.25Z" fill="url(#paint1_linear_126_1000)"/>
<path d="M22.75 20.125H33.25V21.875H22.75V20.125Z" fill="url(#paint2_linear_126_1000)"/>
<defs>
<linearGradient id="paint0_linear_126_1000" x1="43.4808" y1="39.8461" x2="43.4808" y2="46.7385" gradientUnits="userSpaceOnUse">
<stop stop-color="#F96900"/>
<stop offset="1" stop-color="#FFA800"/>
</linearGradient>
<linearGradient id="paint1_linear_126_1000" x1="26.25" y1="15.0767" x2="26.25" y2="56.4309" gradientUnits="userSpaceOnUse">
<stop stop-color="#F96900"/>
<stop offset="1" stop-color="#FFA800"/>
</linearGradient>
<linearGradient id="paint2_linear_126_1000" x1="27.5962" y1="20.4615" x2="27.5962" y2="22.1846" gradientUnits="userSpaceOnUse">
<stop stop-color="#F96900"/>
<stop offset="1" stop-color="#FFA800"/>
</linearGradient>
</defs>
</svg>
