<svg width="56" height="56" viewBox="0 0 56 56" fill="none" xmlns="http://www.w3.org/2000/svg">
<path d="M47.1712 26.25C46.76 28.735 44.5987 30.625 42 30.625C39.4012 30.625 37.24 28.735 36.8287 26.25H47.1712Z" fill="url(#paint0_linear_126_983)"/>
<path d="M24.5 20.125V28.875C22.5662 28.875 21 30.4412 21 32.375H12.25C12.25 25.6112 17.7362 20.125 24.5 20.125Z" fill="url(#paint1_linear_126_983)"/>
<path d="M50.75 25.375C51.7151 25.375 52.5 24.5901 52.5 23.625V21.875C52.5 20.9099 51.7151 20.125 50.75 20.125H41.5476C37.6005 14.6405 31.2673 11.375 24.5 11.375C12.9211 11.375 3.5 20.7961 3.5 32.375C3.5 43.9539 12.9211 53.375 24.5 53.375C30.4824 53.375 36.1567 50.8252 40.1432 46.375H50.75C51.7151 46.375 52.5 45.5901 52.5 44.625V42.875C52.5 41.9099 51.7151 41.125 50.75 41.125C50.75 37.6583 48.7191 34.6658 45.7887 33.25C48.7191 31.8342 50.75 28.8417 50.75 25.375ZM50.75 23.625H33.25V21.875H50.75V23.625ZM31.5 42.875V44.625C31.5 45.2253 31.8045 45.7564 32.2665 46.0714C29.9119 47.4145 27.2676 48.125 24.5 48.125C16.1114 48.125 9.25225 41.5266 8.79462 33.25H20.2134C20.6203 35.2441 22.3869 36.75 24.5 36.75C26.9124 36.75 28.875 34.7874 28.875 32.375C28.875 30.2628 27.3691 28.4953 25.375 28.0884V16.6687C28.7052 16.849 31.8141 18.046 34.3761 20.125H33.25C32.2849 20.125 31.5 20.9099 31.5 21.875V23.625C31.5 24.5901 32.2849 25.375 33.25 25.375C33.25 28.8417 35.2817 31.8342 38.2113 33.25C35.2817 34.6658 33.25 37.6583 33.25 41.125C32.2849 41.125 31.5 41.9099 31.5 42.875ZM24.5 29.75C25.9473 29.75 27.125 30.9277 27.125 32.375C27.125 33.8223 25.9473 35 24.5 35C23.0527 35 21.875 33.8223 21.875 32.375C21.875 30.9277 23.0527 29.75 24.5 29.75ZM23.625 28.0884C21.9135 28.4375 20.5625 29.7885 20.2134 31.5H8.79462C9.2365 23.5147 15.6397 17.1115 23.625 16.6696V28.0884ZM24.5 51.625C13.8854 51.625 5.25 42.9896 5.25 32.375C5.25 21.7604 13.8854 13.125 24.5 13.125C30.2698 13.125 35.6956 15.7176 39.3382 20.125H36.9749C33.698 16.7913 29.1812 14.875 24.5 14.875C14.8505 14.875 7 22.7255 7 32.375C7 42.0245 14.8505 49.875 24.5 49.875C28.3255 49.875 31.941 48.6596 34.9851 46.375H37.709C34.1513 49.7315 29.4394 51.625 24.5 51.625ZM50.75 44.625H33.25V42.875H50.75V44.625ZM49 41.125H35C35 37.562 37.6775 34.6185 41.125 34.1854V35.875H42.875V34.1854C46.3225 34.6185 49 37.562 49 41.125ZM42.875 32.3146V30.625H41.125V32.3146C37.6775 31.8815 35 28.938 35 25.375H49C49 28.938 46.3225 31.8815 42.875 32.3146Z" fill="url(#paint2_linear_126_983)"/>
<path d="M43.7054 15.344L36.2819 7.9187L35.0446 9.15595L42.4681 16.5812L43.7054 15.344Z" fill="url(#paint3_linear_126_983)"/>
<path d="M13.9554 9.15595L12.7181 7.9187L5.29462 15.344L6.53187 16.5812L13.9554 9.15595Z" fill="url(#paint4_linear_126_983)"/>
<path d="M24.5 9.625C26.4303 9.625 28 8.05525 28 6.125C28 4.19475 26.4303 2.625 24.5 2.625C22.5697 2.625 21 4.19475 21 6.125C21 8.05525 22.5697 9.625 24.5 9.625ZM24.5 4.375C25.4651 4.375 26.25 5.15987 26.25 6.125C26.25 7.09013 25.4651 7.875 24.5 7.875C23.5349 7.875 22.75 7.09013 22.75 6.125C22.75 5.15987 23.5349 4.375 24.5 4.375Z" fill="url(#paint5_linear_126_983)"/>
<defs>
<linearGradient id="paint0_linear_126_983" x1="41.6022" y1="27.0913" x2="41.6022" y2="31.399" gradientUnits="userSpaceOnUse">
<stop stop-color="#F96900"/>
<stop offset="1" stop-color="#FFA800"/>
</linearGradient>
<linearGradient id="paint1_linear_126_983" x1="17.9038" y1="22.4807" x2="17.9038" y2="34.5423" gradientUnits="userSpaceOnUse">
<stop stop-color="#F96900"/>
<stop offset="1" stop-color="#FFA800"/>
</linearGradient>
<linearGradient id="paint2_linear_126_983" x1="26.1154" y1="19.4517" x2="26.1154" y2="60.8059" gradientUnits="userSpaceOnUse">
<stop stop-color="#F96900"/>
<stop offset="1" stop-color="#FFA800"/>
</linearGradient>
<linearGradient id="paint3_linear_126_983" x1="39.0419" y1="9.58452" x2="39.0419" y2="18.1138" gradientUnits="userSpaceOnUse">
<stop stop-color="#F96900"/>
<stop offset="1" stop-color="#FFA800"/>
</linearGradient>
<linearGradient id="paint4_linear_126_983" x1="9.29189" y1="9.58452" x2="9.29189" y2="18.1138" gradientUnits="userSpaceOnUse">
<stop stop-color="#F96900"/>
<stop offset="1" stop-color="#FFA800"/>
</linearGradient>
<linearGradient id="paint5_linear_126_983" x1="24.2308" y1="3.97111" x2="24.2308" y2="10.8635" gradientUnits="userSpaceOnUse">
<stop stop-color="#F96900"/>
<stop offset="1" stop-color="#FFA800"/>
</linearGradient>
</defs>
</svg>
