<svg width="53" height="49" viewBox="0 0 53 49" fill="none" xmlns="http://www.w3.org/2000/svg">
<path d="M36.593 11.7603C35.5147 11.7603 34.4805 12.1733 33.718 12.9084C32.9555 13.6435 32.5271 14.6406 32.5271 15.6803C32.5271 16.7199 32.9555 17.717 33.718 18.4521C34.4805 19.1873 35.5147 19.6003 36.593 19.6003C37.6714 19.6003 38.7055 19.1873 39.468 18.4521C40.2305 17.717 40.6589 16.7199 40.6589 15.6803C40.6589 14.6406 40.2305 13.6435 39.468 12.9084C38.7055 12.1733 37.6714 11.7603 36.593 11.7603Z" fill="url(#paint0_linear_202_503)"/>
<path d="M49.8075 12.74H48.3915C48.1008 11.7002 47.6302 10.7036 47.0335 9.77158L48.0927 8.74944C49.2819 7.60284 49.2819 5.73888 48.0927 4.59228C46.9034 3.44568 44.97 3.44568 43.7808 4.59228L42.7074 5.62716C41.7488 5.0617 40.7191 4.61188 39.6427 4.31788V2.94C39.6427 1.31908 38.2745 0 36.5932 0C34.912 0 33.5438 1.31908 33.5438 2.94V4.31788C32.4674 4.61188 31.4377 5.0617 30.4791 5.62716L29.4057 4.59228C28.2164 3.44568 26.2831 3.44568 25.0938 4.59228C24.4494 5.2136 24.1668 6.04464 24.2207 6.85902H3.04944C1.36818 6.85902 0 8.1781 0 9.79902V43.119C0 44.395 0.851809 45.473 2.03296 45.8787V47.04C2.03296 48.1209 2.94474 49 4.06592 49H33.5438C34.665 49 35.5768 48.1209 35.5768 47.04V45.8797C36.7579 45.474 37.6097 44.396 37.6097 43.12V31.1797C38.7909 30.774 39.6427 29.696 39.6427 28.42V27.0421C40.7191 26.7481 41.7488 26.2983 42.7074 25.7328L43.7808 26.7677C44.3754 27.341 45.1561 27.6272 45.9367 27.6272C46.7174 27.6272 47.498 27.341 48.0927 26.7677C49.2819 25.6211 49.2819 23.7572 48.0927 22.6106L47.0335 21.5884C47.6312 20.6564 48.1018 19.6598 48.3915 18.62H49.8075C51.4887 18.62 52.8569 17.3009 52.8569 15.68C52.8569 14.0591 51.4887 12.74 49.8075 12.74ZM45.2181 5.97898C45.6033 5.60952 46.2701 5.60952 46.6554 5.97898C46.8465 6.1642 46.9532 6.41018 46.9532 6.67184C46.9532 6.9335 46.8475 7.17948 46.6554 7.3647L45.8056 8.18398C45.3624 7.69006 44.8816 7.22848 44.3632 6.80316L45.2181 5.97898ZM26.5311 5.97898C26.9164 5.60952 27.5832 5.60952 27.9684 5.97898L28.8243 6.80316C28.3059 7.22848 27.8251 7.69006 27.3819 8.18398L26.5321 7.3647C26.341 7.17948 26.2343 6.9335 26.2343 6.67184C26.2343 6.41018 26.339 6.1642 26.5311 5.97898ZM4.06592 47.04V46.06H33.5438V47.04H4.06592ZM34.5603 44.1H3.04944C2.48834 44.1 2.03296 43.661 2.03296 43.12V9.8C2.03296 9.25904 2.48834 8.82 3.04944 8.82H25.166L26.153 9.77158C25.5553 10.7036 25.0847 11.6992 24.794 12.74H23.379C21.6978 12.74 20.3296 14.0591 20.3296 15.68C20.3296 17.3009 21.6978 18.62 23.379 18.62H24.795C25.0857 19.6598 25.5563 20.6564 26.154 21.5884L25.0938 22.6106C23.9045 23.7572 23.9045 25.6211 25.0938 26.7677C25.6885 27.341 26.4691 27.6272 27.2498 27.6272C28.0304 27.6272 28.8111 27.341 29.4057 26.7677L30.4791 25.7328C31.4377 26.2983 32.4674 26.7481 33.5438 27.0421V28.42C33.5438 29.696 34.3956 30.774 35.5768 31.1797V43.12C35.5768 43.661 35.1214 44.1 34.5603 44.1ZM26.5311 23.9953L27.3809 23.176C27.8241 23.6699 28.3049 24.1315 28.8233 24.5568L27.9674 25.381C27.5822 25.7505 26.9153 25.7505 26.5301 25.381C26.339 25.1958 26.2323 24.9498 26.2323 24.6882C26.2323 24.4265 26.339 24.1815 26.5311 23.9953ZM46.6554 23.9953C46.8465 24.1805 46.9532 24.4265 46.9532 24.6882C46.9532 24.9498 46.8475 25.1958 46.6554 25.381C46.2701 25.7505 45.6033 25.7505 45.2181 25.381L44.3622 24.5568C44.8806 24.1315 45.3614 23.6699 45.8046 23.176L46.6554 23.9953ZM49.8075 16.66H46.7346L46.5822 17.4626C45.8778 21.1562 42.3689 24.5314 38.4229 25.3134L37.6097 25.4741V28.42C37.6097 28.961 37.1543 29.4 36.5932 29.4C36.0321 29.4 35.5768 28.961 35.5768 28.42V25.4741L34.7646 25.3134C30.8176 24.5314 27.3097 21.1562 26.6053 17.4626L26.4518 16.66H23.379C22.8179 16.66 22.3625 16.221 22.3625 15.68C22.3625 15.139 22.8179 14.7 23.379 14.7H26.4518L26.6043 13.8974C27.3087 10.2038 30.8176 6.82864 34.7636 6.0466L35.5768 5.88588V2.94C35.5768 2.39904 36.0321 1.96 36.5932 1.96C37.1543 1.96 37.6097 2.39904 37.6097 2.94V5.88588L38.4219 6.0466C42.3689 6.82864 45.8767 10.2038 46.5812 13.8974L46.7346 14.7H49.8075C50.3686 14.7 50.8239 15.139 50.8239 15.68C50.8239 16.221 50.3686 16.66 49.8075 16.66Z" fill="url(#paint1_linear_202_503)"/>
<path d="M36.593 7.84009C32.1093 7.84009 28.4612 11.3573 28.4612 15.6801C28.4612 20.0029 32.1093 23.5201 36.593 23.5201C41.0767 23.5201 44.7249 20.0029 44.7249 15.6801C44.7249 11.3573 41.0767 7.84009 36.593 7.84009ZM36.593 21.5601C33.2295 21.5601 30.4941 18.9229 30.4941 15.6801C30.4941 12.4373 33.2295 9.80009 36.593 9.80009C39.9565 9.80009 42.6919 12.4373 42.6919 15.6801C42.6919 18.9229 39.9565 21.5601 36.593 21.5601Z" fill="url(#paint2_linear_202_503)"/>
<path d="M9.14866 23.52C7.46739 23.52 6.0992 24.8391 6.0992 26.46C6.0992 28.0809 7.46739 29.4 9.14866 29.4C10.8299 29.4 12.1981 28.0809 12.1981 26.46C12.1981 24.8391 10.8299 23.52 9.14866 23.52ZM9.14866 27.44C8.58756 27.44 8.13217 27.001 8.13217 26.46C8.13217 25.9191 8.58756 25.48 9.14866 25.48C9.70977 25.48 10.1652 25.9191 10.1652 26.46C10.1652 27.001 9.70977 27.44 9.14866 27.44Z" fill="url(#paint3_linear_202_503)"/>
<path d="M9.14866 15.6799C7.46739 15.6799 6.0992 16.999 6.0992 18.6199C6.0992 20.2409 7.46739 21.5599 9.14866 21.5599C10.8299 21.5599 12.1981 20.2409 12.1981 18.6199C12.1981 16.999 10.8299 15.6799 9.14866 15.6799ZM9.14866 19.5999C8.58756 19.5999 8.13217 19.1609 8.13217 18.6199C8.13217 18.079 8.58756 17.6399 9.14866 17.6399C9.70977 17.6399 10.1652 18.079 10.1652 18.6199C10.1652 19.1609 9.70977 19.5999 9.14866 19.5999Z" fill="url(#paint4_linear_202_503)"/>
<path d="M9.14866 31.3601C7.46739 31.3601 6.0992 32.6792 6.0992 34.3001C6.0992 35.921 7.46739 37.2401 9.14866 37.2401C10.8299 37.2401 12.1981 35.921 12.1981 34.3001C12.1981 32.6792 10.8299 31.3601 9.14866 31.3601ZM9.14866 35.2801C8.58756 35.2801 8.13217 34.841 8.13217 34.3001C8.13217 33.7591 8.58756 33.3201 9.14866 33.3201C9.70977 33.3201 10.1652 33.7591 10.1652 34.3001C10.1652 34.841 9.70977 35.2801 9.14866 35.2801Z" fill="url(#paint5_linear_202_503)"/>
<path d="M14.2306 19.5999H19.313V21.5599H14.2306V19.5999Z" fill="url(#paint6_linear_202_503)"/>
<path d="M14.2306 27.4399H22.3624V29.4H14.2306V27.4399Z" fill="url(#paint7_linear_202_503)"/>
<path d="M14.2306 35.28H31.5108V37.24H14.2306V35.28Z" fill="url(#paint8_linear_202_503)"/>
<path d="M14.2306 31.3601H31.5108V33.32H14.2306V31.3601Z" fill="url(#paint9_linear_202_503)"/>
<path d="M14.2306 23.52H22.3624V25.48H14.2306V23.52Z" fill="url(#paint10_linear_202_503)"/>
<path d="M14.2306 16.6599H19.313V18.6199H14.2306V16.6599Z" fill="url(#paint11_linear_202_503)"/>
<defs>
<linearGradient id="paint0_linear_202_503" x1="36.2803" y1="13.2679" x2="36.2803" y2="20.9874" gradientUnits="userSpaceOnUse">
<stop stop-color="#F96900"/>
<stop offset="1" stop-color="#FFA800"/>
</linearGradient>
<linearGradient id="paint1_linear_202_503" x1="24.3955" y1="9.42279" x2="24.3955" y2="57.6693" gradientUnits="userSpaceOnUse">
<stop stop-color="#F96900"/>
<stop offset="1" stop-color="#FFA800"/>
</linearGradient>
<linearGradient id="paint2_linear_202_503" x1="35.9675" y1="10.8554" x2="35.9675" y2="26.2943" gradientUnits="userSpaceOnUse">
<stop stop-color="#F96900"/>
<stop offset="1" stop-color="#FFA800"/>
</linearGradient>
<linearGradient id="paint3_linear_202_503" x1="8.91409" y1="24.6508" x2="8.91409" y2="30.4403" gradientUnits="userSpaceOnUse">
<stop stop-color="#F96900"/>
<stop offset="1" stop-color="#FFA800"/>
</linearGradient>
<linearGradient id="paint4_linear_202_503" x1="8.91409" y1="16.8107" x2="8.91409" y2="22.6003" gradientUnits="userSpaceOnUse">
<stop stop-color="#F96900"/>
<stop offset="1" stop-color="#FFA800"/>
</linearGradient>
<linearGradient id="paint5_linear_202_503" x1="8.91409" y1="32.4908" x2="8.91409" y2="38.2804" gradientUnits="userSpaceOnUse">
<stop stop-color="#F96900"/>
<stop offset="1" stop-color="#FFA800"/>
</linearGradient>
<linearGradient id="paint6_linear_202_503" x1="16.5763" y1="19.9768" x2="16.5763" y2="21.9066" gradientUnits="userSpaceOnUse">
<stop stop-color="#F96900"/>
<stop offset="1" stop-color="#FFA800"/>
</linearGradient>
<linearGradient id="paint7_linear_202_503" x1="17.9837" y1="27.8169" x2="17.9837" y2="29.7468" gradientUnits="userSpaceOnUse">
<stop stop-color="#F96900"/>
<stop offset="1" stop-color="#FFA800"/>
</linearGradient>
<linearGradient id="paint8_linear_202_503" x1="22.2061" y1="35.6569" x2="22.2061" y2="37.5868" gradientUnits="userSpaceOnUse">
<stop stop-color="#F96900"/>
<stop offset="1" stop-color="#FFA800"/>
</linearGradient>
<linearGradient id="paint9_linear_202_503" x1="22.2061" y1="31.737" x2="22.2061" y2="33.6668" gradientUnits="userSpaceOnUse">
<stop stop-color="#F96900"/>
<stop offset="1" stop-color="#FFA800"/>
</linearGradient>
<linearGradient id="paint10_linear_202_503" x1="17.9837" y1="23.8969" x2="17.9837" y2="25.8268" gradientUnits="userSpaceOnUse">
<stop stop-color="#F96900"/>
<stop offset="1" stop-color="#FFA800"/>
</linearGradient>
<linearGradient id="paint11_linear_202_503" x1="16.5763" y1="17.0368" x2="16.5763" y2="18.9667" gradientUnits="userSpaceOnUse">
<stop stop-color="#F96900"/>
<stop offset="1" stop-color="#FFA800"/>
</linearGradient>
</defs>
</svg>
