<svg width="37" height="37" viewBox="0 0 37 37" fill="none" xmlns="http://www.w3.org/2000/svg">
<path fill-rule="evenodd" clip-rule="evenodd" d="M18.5 0C8.28273 0 0 8.28273 0 18.5C0 28.7173 8.28273 37 18.5 37C28.7173 37 37 28.7173 37 18.5C37 8.28273 28.7173 0 18.5 0ZM20.0063 24.34C19.8239 24.5323 19.4678 24.5711 19.4678 24.5711H18.2883C18.2883 24.5711 15.6863 24.7246 13.394 22.3827C10.8943 19.8275 8.68694 14.758 8.68694 14.758C8.68694 14.758 8.55954 14.4255 8.69755 14.2654C8.85294 14.0844 9.27665 14.0731 9.27665 14.0731L12.0959 14.0551C12.0959 14.0551 12.3613 14.0977 12.5514 14.2351C12.7087 14.3487 12.7966 14.56 12.7966 14.56C12.7966 14.56 13.2521 15.6912 13.8554 16.7144C15.0338 18.7124 15.582 19.1492 15.9816 18.9351C16.5646 18.6234 16.3899 16.1109 16.3899 16.1109C16.3899 16.1109 16.4005 15.1995 16.0965 14.7931C15.861 14.4785 15.417 14.3866 15.2211 14.3611C15.0618 14.3402 15.3224 13.9783 15.6602 13.8163C16.1679 13.5728 17.0635 13.5586 18.1223 13.569C18.9475 13.5776 19.185 13.6278 19.5073 13.7045C20.2555 13.8817 20.2321 14.4497 20.1817 15.6754C20.1666 16.042 20.1492 16.4674 20.1492 16.9588C20.1492 17.0692 20.1459 17.187 20.1425 17.308C20.125 17.936 20.105 18.6551 20.5265 18.9228C20.7427 19.0592 21.2707 18.9427 22.592 16.7409C23.2184 15.6969 23.6874 14.47 23.6874 14.47C23.6874 14.47 23.7907 14.2512 23.9499 14.1574C24.1131 14.0617 24.3331 14.0911 24.3331 14.0911L27.3 14.0731C27.3 14.0731 28.1918 13.9679 28.3356 14.3639C28.4872 14.7779 28.0026 15.7462 26.7904 17.3321C25.6405 18.8369 25.0809 19.391 25.1323 19.8809C25.1698 20.239 25.5335 20.5628 26.2316 21.1984C27.6888 22.5264 28.0793 23.2251 28.1732 23.393C28.181 23.4069 28.1867 23.4172 28.1908 23.4238C28.8443 24.4878 27.466 24.5711 27.466 24.5711L24.8302 24.6071C24.8302 24.6071 24.2646 24.717 23.5195 24.2149C23.1292 23.9521 22.7478 23.5229 22.3845 23.1141C21.8297 22.4897 21.3172 21.9129 20.8798 22.0492C20.1453 22.2784 20.1675 23.8312 20.1675 23.8312C20.1675 23.8312 20.1733 24.1638 20.0063 24.34Z" fill="#B5B5B5"/>
</svg>
