<svg width="36" height="36" viewBox="0 0 36 36" fill="none" xmlns="http://www.w3.org/2000/svg">
<path fill-rule="evenodd" clip-rule="evenodd" d="M18 0C27.9411 0 36 8.05887 36 18C36 27.9411 27.9411 36 18 36C8.05887 36 0 27.9411 0 18C0 8.05887 8.05887 0 18 0ZM22.7956 15.7187C22.708 15.0074 22.4895 14.449 22.1012 13.9543C21.5971 13.3174 20.9529 12.9359 19.9992 12.7097C19.3776 12.5589 19.1265 12.5762 18.9017 12.7815C18.6923 12.9739 18.6514 13.3596 18.8114 13.6093C18.9239 13.7906 19.0538 13.8556 19.4148 13.9264C19.8957 14.0149 20.228 14.1297 20.5302 14.3025C21.1718 14.673 21.4706 15.2527 21.5026 16.1912C21.5175 16.6319 21.5556 16.7673 21.7095 16.9236C21.9948 17.2093 22.5024 17.1538 22.7178 16.8119C22.7968 16.683 22.8089 16.6269 22.8172 16.3277C22.8227 16.1425 22.8148 15.8667 22.7956 15.7187ZM22.8041 11.3552C24.3295 12.5887 25.1818 14.3418 25.3085 16.5208C25.3618 17.3791 25.291 17.6586 24.9882 17.8178C24.715 17.9654 24.4054 17.9168 24.193 17.6947C24.0523 17.5502 23.9983 17.3527 24.0003 17.0028C24.0065 16.0355 23.7837 14.9552 23.4213 14.2056C23.002 13.3332 22.3537 12.5908 21.5382 12.048C20.8239 11.5713 19.8785 11.2493 18.9619 11.1691C18.3674 11.117 18.1551 11.0164 18.041 10.7313C17.9703 10.5608 17.9889 10.2661 18.0718 10.1341C18.1502 10.0123 18.326 9.87771 18.4504 9.84212C18.5821 9.80369 19.3501 9.87088 19.7672 9.95377C20.9059 10.1855 21.9447 10.6621 22.8041 11.3552ZM28.0892 24.9124C28.0466 24.7879 27.9471 24.5957 27.8761 24.4854C27.4284 23.8095 25.0234 21.9273 23.8226 21.3118C23.137 20.9596 22.629 20.8422 22.2524 20.9524C21.8475 21.0663 21.6343 21.2549 20.9558 22.0981C20.6822 22.4361 20.4016 22.7528 20.327 22.8025C20.1422 22.9306 19.7799 23.0339 19.5241 23.0339C18.9308 23.0302 17.8544 22.646 17.0267 22.1408C16.3837 21.7495 15.5595 21.0486 14.9272 20.3547C14.1811 19.54 13.6732 18.8213 13.2717 18.0101C12.753 16.9676 12.6216 16.3307 12.8383 15.8646C12.8916 15.7472 12.9626 15.6228 12.9946 15.5836C13.0266 15.548 13.3605 15.274 13.7299 14.9752C14.4547 14.3988 14.5719 14.2672 14.7069 13.8723C14.8774 13.3706 14.8312 12.8582 14.5684 12.3424C14.3658 11.951 13.8365 11.0971 13.4529 10.5456C12.9449 9.81984 11.6802 8.2686 11.4279 8.05862C10.9732 7.68864 10.3906 7.62456 9.74755 7.87366C9.06908 8.13695 7.79724 9.16161 7.25369 9.87676C6.76345 10.5243 6.57522 10.9832 6.54677 11.5881C6.52192 12.0862 6.56454 12.2925 6.82743 12.9294C8.88434 17.9247 11.9537 21.9131 16.1705 25.0796C18.3731 26.734 20.6574 27.9935 23.0269 28.8546C24.4088 29.3562 25.0092 29.3811 25.7161 28.9684C26.0145 28.7905 26.7535 28.0327 27.1655 27.4812C27.8476 26.5632 28.0999 26.1399 28.1709 25.8019C28.2207 25.5706 28.1816 25.1686 28.0892 24.9124ZM27.1808 13.6504C27.6136 14.7776 27.8211 15.7886 27.8666 17.0212C27.8738 17.2647 27.8704 17.7108 27.8547 18.013C27.8218 18.5923 27.7904 18.7074 27.6236 18.8607C27.3555 19.1122 26.833 19.0523 26.6349 18.7492C26.5314 18.5865 26.5169 18.4674 26.5369 17.7906C26.5944 15.7885 26.1895 14.2209 25.214 12.6534C24.0484 10.7728 22.3048 9.50592 20.0376 8.88613C19.4594 8.72838 18.9721 8.63223 18.2143 8.53021C17.7207 8.4656 17.6126 8.43828 17.4908 8.36329C17.1227 8.12757 17.1178 7.53066 17.4847 7.29135C17.674 7.16502 17.8136 7.15937 18.4308 7.23841C20.2404 7.46455 21.8551 8.00226 23.1819 8.8148C24.133 9.39799 24.7326 9.9219 25.5046 10.8395C26.3212 11.8181 26.7536 12.5416 27.1808 13.6504Z" fill="#B5B5B5"/>
</svg>
